/* XPM */
static char *c40a82d5f7004ecec5addb15d6c4f48e13IEoDAtn25hS246[] = {
/* columns rows colors chars-per-pixel */
"42 42 3 1 ",
"  c magenta",
". c #35090D",
"X c #190406",
/* pixels */
"                 ........                 ",
"             ....XXXXXXXX....             ",
"           ..XXXXXXXXXXXXXXXX..           ",
"         ..XXX   XXXXXXXX   XXX..         ",
"        .XXX      XXXXXX      XXX.        ",
"       .XX        XXXXXX        XX.       ",
"      .XX          XXXX          XX.      ",
"     .XX           XXXX           XX.     ",
"    .XX            XXXX            XX.    ",
"   .XX             XXXX             XX.   ",
"   XX              XXXX              XX   ",
"  .XX              XXXX              XX.  ",
"  XX               XXXX               XX  ",
" .XX               XXXX               XX. ",
" XX                XXXX                XX ",
" XX               .XXXX.               XX ",
" XX              .XXXXXX.              XX ",
".XX.            .XXX.XXXX.            .XX.",
"XXXX..         .XX.XX.XXXX.         ..XXXX",
"XXXXXX.........XXXX.X.XXXXX.........XXXXXX",
"XXXXXXXXXXXXXXXXXXX.X.XXXXXXXXXXXXXXXXXXXX",
"XXXXXXXXXXXXXXXXXXX.X.XXXXXXXXXXXXXXXXXXXX",
"XXXXXXXXXXXXXXXXXXX.X.XXXXXXXXXXXXXXXXXXXX",
"XXXXXX         XXXX.XX.XXXX         XXXXXX",
"XXXX            XXXX.XXXXX            XXXX",
" XX              XXXXXXXX              XX ",
" XX               XXXXXX               XX ",
" XX                XXXX                XX ",
" XXX               XXXX               XXX ",
"  XX               XXXX               XX  ",
"  XXX              XXXX              XXX  ",
"   XX              XXXX              XX   ",
"   XXX             XXXX             XXX   ",
"    XXX            XXXX            XXX    ",
"     XXX           XXXX           XXX     ",
"      XXX          XXXX          XXX      ",
"       XXX        XXXXXX        XXX       ",
"        XXXX      XXXXXX      XXXX        ",
"         XXXXX   XXXXXXXX   XXXXX         ",
"           XXXXXXXXXXXXXXXXXXXX           ",
"             XXXXXXXXXXXXXXXX             ",
"                 XXXXXXXX                 "
};
