/* XPM */
static char * line_xpm[] = {
"64 64 2 1",
" 	c #D02626",
".	c #FFFFFF",
"                ..........           ..........                 ",
"               ..........           ..........                  ",
"              ..........           ..........                   ",
"             ..........           ..........                    ",
"            ..........           ..........                     ",
"           ..........           ..........                      ",
"          ..........           ..........                       ",
"         ..........           ..........                        ",
"        ..........           ..........                         ",
"       ..........           ..........                          ",
"      ..........           ..........                           ",
"     ..........           ..........                            ",
"    ..........           ..........                             ",
"   ..........           ..........                              ",
"  ..........           ..........                               ",
" ..........           ..........                                ",
"..........           ..........                                 ",
".........           ..........                                 .",
"........           ..........                                 ..",
".......           ..........                                 ...",
"......           ..........                                 ....",
".....           ..........                                 .....",
"....           ..........                                 ......",
"...           ..........                                 .......",
"..           ..........                                 ........",
".           ..........                                 .........",
"           ..........                                 ..........",
"          ..........                                 .......... ",
"         ..........                                 ..........  ",
"        ..........                                 ..........   ",
"       ..........                                 ..........    ",
"      ..........                                 ..........     ",
"     ..........                                 ..........      ",
"    ..........                                 ..........       ",
"   ..........                                 ..........        ",
"  ..........                                 ..........         ",
" ..........                                 ..........          ",
"..........                                 ..........           ",
".........                                 ..........           .",
"........                                 ..........           ..",
".......                                 ..........           ...",
"......                                 ..........           ....",
".....                                 ..........           .....",
"....                                 ..........           ......",
"...                                 ..........           .......",
"..                                 ..........           ........",
".                                 ..........           .........",
"                                 ..........           ..........",
"                                ..........           .......... ",
"                               ..........           ..........  ",
"                              ..........           ..........   ",
"                             ..........           ..........    ",
"                            ..........           ..........     ",
"                           ..........           ..........      ",
"                          ..........           ..........       ",
"                         ..........           ..........        ",
"                        ..........           ..........         ",
"                       ..........           ..........          ",
"                      ..........           ..........           ",
"                     ..........           ..........            ",
"                    ..........           ..........             ",
"                   ..........           ..........              ",
"                  ..........           ..........               ",
"                 ..........           ..........                "};
