/* XPM */
static char * mini_car_xpm[] = {
"20 13 24 1",
" 	c #FF00FF",
".	c #F92612",
"+	c #516E83",
"@	c #556D81",
"#	c #526E82",
"$	c #546D81",
"%	c #B0E4FC",
"&	c #AFE3FB",
"*	c #80A7BD",
"=	c #B0E4FD",
"-	c #5F687A",
";	c #ACE0F8",
">	c #FFFEFF",
",	c #F92915",
"'	c #D70617",
")	c #F9230F",
"!	c #4E433D",
"~	c #4C443E",
"{	c #4D433D",
"]	c #C9C9C9",
"^	c #C8C8C8",
"/	c #CACACA",
"(	c #4D423C",
"_	c #4C413B",
"        .......     ",
"       .+@+#+++.    ",
"      .$%&&*=&&-.   ",
"     .$&&&&*%&&;+.  ",
"   ..#&&&&&*%&&&$.. ",
" ...................",
" >,.''''''''''''''''",
" )''''''''''''''''''",
" '''!!'''''''''~{'''",
" ''!]^!'''''''!/]!' ",
"  '!^^('''''''!^^(' ",
"    (_         ((   ",
"                    "};
