/* XPM */
static char *bd3fabb55ae24be6d7a66d46b897f556bJAPFP9uHSKk9MIK[] = {
/* columns rows colors chars-per-pixel */
"64 64 3 1 ",
"  c #FF7CC6",
". c #FF5284",
"X c #FF9FBA",
/* pixels */
"                                                                ",
".......................................      ...................",
"..........................................  ....................",
"........................................... ....................",
"........................................... ....................",
"........................................... ....................",
"........................................... ....................",
"........................................... ....................",
"........................................... ....................",
"........................................... ....................",
"........................................... ....................",
"........................................... ....................",
"........................................... ....................",
"...........................................  ...................",
"...........................................   ..................",
"..........................................  X   ................",
"                                           XX                   ",
"..................  X  ...................    ..................",
"....................  ..........................................",
"..................... ..........................................",
"..................... ..........................................",
"..................... ..........................................",
"..................... ..........................................",
"..................... ..........................................",
"..................... ..........................................",
"..................... ..........................................",
"..................... ..........................................",
"..................... ..........................................",
"..................... ..........................................",
"..................... ..........................................",
"..................... ..........................................",
".....................  ............................   ..........",
"                     X                              XX          ",
".......  X .........  ..........................     X .........",
".........  .........................................  ..........",
".......... .......................................... ..........",
".......... .......................................... ..........",
".......... .......................................... ..........",
".......... .......................................... ..........",
".......... .......................................... ..........",
".......... .......................................... ..........",
".......... .......................................... ..........",
".......... .......................................... ..........",
".......... .......................................... ..........",
".......... .......................................... ..........",
".......... .......................................... ..........",
"..........  ......................................... ..........",
"......... X   .................  ...................  ..........",
"                               X                                ",
"...........  ................ XX ...............................",
"..............................  ................................",
"............................... ................................",
"............................... ................................",
"............................... ................................",
"............................... ................................",
"............................... ................................",
"............................... ................................",
"............................... ................................",
"............................... ................................",
"............................... ................................",
"............................... ................................",
"............................... ................................",
"............................... ................................",
"............................... ................................"
};
